<svg width="70" height="70" viewBox="0 0 70 70" fill="none" xmlns="http://www.w3.org/2000/svg">
<path d="M62.1197 47.5971C66.8553 52.3327 66.8553 60.0106 62.1197 64.7462C57.384 69.4818 49.7061 69.4818 44.9705 64.7462C40.2349 60.0107 40.2349 52.3327 44.9705 47.5971C49.7061 42.8615 57.384 42.8615 62.1197 47.5971" stroke="#454545" stroke-width="2" stroke-linecap="round" stroke-linejoin="round"/>
<path d="M13.119 27.8652V44.06" stroke="#454545" stroke-width="2" stroke-linecap="round" stroke-linejoin="round"/>
<path fill-rule="evenodd" clip-rule="evenodd" d="M21.2093 68.2979H5.0433C2.81065 68.2979 1 66.4873 1 64.2546V48.0887C1 45.8561 2.81065 44.0454 5.0433 44.0454H21.2093C23.4419 44.0454 25.2526 45.8561 25.2526 48.0887V64.2546C25.2526 66.4873 23.4419 68.2979 21.2093 68.2979Z" stroke="#454545" stroke-width="2" stroke-linecap="round" stroke-linejoin="round"/>
<path d="M53.5517 44.0599V29.9932" stroke="#454545" stroke-width="2" stroke-linecap="round" stroke-linejoin="round"/>
<path d="M21.7009 7.17889C26.4365 11.9145 26.4365 19.5924 21.7009 24.328C16.9653 29.0636 9.28734 29.0636 4.5517 24.328C-0.183901 19.5924 -0.183901 11.9145 4.5517 7.17889C9.28731 2.4433 16.9653 2.4433 21.7009 7.17889" stroke="#454545" stroke-width="2" stroke-linecap="round" stroke-linejoin="round"/>
<path fill-rule="evenodd" clip-rule="evenodd" d="M66.8361 18.3539L56.3834 28.8066C54.8036 30.3864 52.2463 30.3864 50.6665 28.8066L40.2138 18.3539C38.634 16.7741 38.634 14.2169 40.2138 12.637L50.6665 2.18437C52.2463 0.604561 54.8036 0.604561 56.3834 2.18437L66.8361 12.637C68.4123 14.2169 68.4123 16.7741 66.8361 18.3539V18.3539Z" stroke="#454545" stroke-width="2" stroke-linecap="round" stroke-linejoin="round"/>
<path d="M39.0524 15.7461H25.2381" stroke="#454545" stroke-width="2" stroke-linecap="round" stroke-linejoin="round"/>
</svg>
