<svg width="72" height="65" viewBox="0 0 72 65" fill="none" xmlns="http://www.w3.org/2000/svg">
<path d="M41.7553 26.5374C44.9341 29.7162 44.9341 34.87 41.7553 38.0487C38.5766 41.2275 33.4227 41.2275 30.244 38.0487C27.0652 34.87 27.0652 29.7161 30.244 26.5374C33.4228 23.3586 38.5766 23.3586 41.7553 26.5374" stroke="#454545" stroke-width="2" stroke-linecap="round" stroke-linejoin="round"/>
<path d="M68.8542 27.1126C71.7152 29.9736 71.7152 34.6122 68.8542 37.4733C65.9931 40.3343 61.3545 40.3343 58.4934 37.4733C55.6324 34.6123 55.6324 29.9736 58.4934 27.1126C61.3545 24.2515 65.9931 24.2515 68.8542 27.1126" stroke="#454545" stroke-width="2" stroke-linecap="round" stroke-linejoin="round"/>
<path d="M13.5064 27.1126C16.3675 29.9736 16.3675 34.6122 13.5064 37.4733C10.6454 40.3343 6.00676 40.3343 3.14571 37.4733C0.284681 34.6123 0.284681 29.9736 3.14571 27.1126C6.00675 24.2515 10.6454 24.2515 13.5064 27.1126" stroke="#454545" stroke-width="2" stroke-linecap="round" stroke-linejoin="round"/>
<path d="M55.0156 3.14529C57.8766 6.00632 57.8766 10.645 55.0156 13.506C52.1546 16.367 47.5159 16.367 44.6549 13.506C41.7938 10.645 41.7938 6.00634 44.6549 3.14529C47.5159 0.284253 52.1545 0.284253 55.0156 3.14529" stroke="#454545" stroke-width="2" stroke-linecap="round" stroke-linejoin="round"/>
<path d="M27.3449 51.0803C30.2059 53.9414 30.2059 58.58 27.3449 61.4411C24.4838 64.3021 19.8452 64.3021 16.9842 61.4411C14.1231 58.58 14.1231 53.9414 16.9842 51.0803C19.8452 48.2193 24.4838 48.2193 27.3449 51.0803" stroke="#454545" stroke-width="2" stroke-linecap="round" stroke-linejoin="round"/>
<path d="M27.3449 3.14529C30.2059 6.00632 30.2059 10.645 27.3449 13.506C24.4838 16.367 19.8452 16.367 16.9842 13.506C14.1231 10.645 14.1231 6.00634 16.9842 3.14529C19.8452 0.284253 24.4838 0.284253 27.3449 3.14529" stroke="#454545" stroke-width="2" stroke-linecap="round" stroke-linejoin="round"/>
<path d="M55.0156 51.0803C57.8766 53.9414 57.8766 58.58 55.0156 61.4411C52.1546 64.3021 47.5159 64.3021 44.6549 61.4411C41.7938 58.58 41.7938 53.9414 44.6549 51.0803C47.5159 48.2193 52.1545 48.2193 55.0156 51.0803" stroke="#454545" stroke-width="2" stroke-linecap="round" stroke-linejoin="round"/>
<path d="M25.8121 49.9209L31.9317 39.3159" stroke="#454545" stroke-width="2" stroke-linecap="round" stroke-linejoin="round"/>
<path d="M25.8121 14.6638L31.9317 25.2688" stroke="#454545" stroke-width="2" stroke-linecap="round" stroke-linejoin="round"/>
<path d="M56.3403 32.2927H44.1359" stroke="#454545" stroke-width="2" stroke-linecap="round" stroke-linejoin="round"/>
</svg>
