<svg width="68" height="65" viewBox="0 0 68 65" fill="none" xmlns="http://www.w3.org/2000/svg">
<path fill-rule="evenodd" clip-rule="evenodd" d="M59.6844 63.1359H7.90404C4.08956 63.1359 1 60.0463 1 56.2318V7.90355C1 4.08907 4.08956 0.999512 7.90404 0.999512H59.6844C63.4988 0.999512 66.5884 4.08907 66.5884 7.90355V56.2318C66.5884 60.0463 63.4988 63.1359 59.6844 63.1359Z" stroke="#454545" stroke-width="2" stroke-linecap="round" stroke-linejoin="round"/>
<path d="M1 18.2597H66.5884" stroke="#454545" stroke-width="2" stroke-linecap="round" stroke-linejoin="round"/>
<path d="M11.3733 9.59522C11.363 9.59522 11.3561 9.60213 11.3561 9.61248C11.3561 9.62284 11.363 9.62974 11.3733 9.62974C11.3837 9.62974 11.3906 9.62284 11.3906 9.61248C11.3906 9.60213 11.3837 9.59522 11.3733 9.59522" stroke="#454545" stroke-width="4" stroke-linecap="round" stroke-linejoin="round"/>
<path d="M20.1517 9.59522C20.1413 9.59522 20.1344 9.60213 20.1344 9.61248C20.1344 9.62284 20.1413 9.62974 20.1517 9.62974C20.162 9.62974 20.1689 9.62284 20.1689 9.61248C20.1689 9.60213 20.162 9.59522 20.1517 9.59522" stroke="#454545" stroke-width="4" stroke-linecap="round" stroke-linejoin="round"/>
<path d="M28.92 9.59522C28.9096 9.59522 28.9027 9.60213 28.9027 9.61248C28.9027 9.62284 28.9096 9.62974 28.92 9.62974C28.9303 9.62974 28.9372 9.62284 28.9372 9.61248C28.9372 9.60213 28.9269 9.59522 28.92 9.59522" stroke="#454545" stroke-width="4" stroke-linecap="round" stroke-linejoin="round"/>
</svg>
