<svg width="31" height="57" viewBox="0 0 31 57" fill="none" xmlns="http://www.w3.org/2000/svg">
<path d="M26.7188 0H3.5625C2.61767 0 1.71153 0.375334 1.04343 1.04343C0.375334 1.71153 0 2.61767 0 3.5625V53.4375C0 54.3823 0.375334 55.2885 1.04343 55.9566C1.71153 56.6247 2.61767 57 3.5625 57H26.7188C27.6636 57 28.5697 56.6247 29.2378 55.9566C29.9059 55.2885 30.2812 54.3823 30.2812 53.4375V3.5625C30.2812 2.61767 29.9059 1.71153 29.2378 1.04343C28.5697 0.375334 27.6636 0 26.7188 0V0ZM3.5625 1.78125H26.7188C27.1912 1.78125 27.6442 1.96892 27.9783 2.30297C28.3123 2.63702 28.5 3.09008 28.5 3.5625V7.125H1.78125V3.5625C1.78125 3.09008 1.96892 2.63702 2.30297 2.30297C2.63702 1.96892 3.09008 1.78125 3.5625 1.78125ZM1.78125 48.0938V8.90625H28.5V48.0938H1.78125ZM26.7188 55.2188H3.5625C3.09008 55.2188 2.63702 55.0311 2.30297 54.697C1.96892 54.363 1.78125 53.9099 1.78125 53.4375V49.875H28.5V53.4375C28.5 53.9099 28.3123 54.363 27.9783 54.697C27.6442 55.0311 27.1912 55.2188 26.7188 55.2188Z" fill="white"/>
<path d="M12.2461 5.34375H18.0352C18.2714 5.34375 18.4979 5.24992 18.6649 5.08289C18.8319 4.91587 18.9258 4.68933 18.9258 4.45312C18.9258 4.21692 18.8319 3.99038 18.6649 3.82336C18.4979 3.65633 18.2714 3.5625 18.0352 3.5625H12.2461C12.0099 3.5625 11.7834 3.65633 11.6163 3.82336C11.4493 3.99038 11.3555 4.21692 11.3555 4.45312C11.3555 4.68933 11.4493 4.91587 11.6163 5.08289C11.7834 5.24992 12.0099 5.34375 12.2461 5.34375Z" fill="white"/>
<path d="M15.1406 53.4375C15.6325 53.4375 16.0312 53.0388 16.0312 52.5469C16.0312 52.055 15.6325 51.6562 15.1406 51.6562C14.6487 51.6562 14.25 52.055 14.25 52.5469C14.25 53.0388 14.6487 53.4375 15.1406 53.4375Z" fill="white"/>
</svg>
