<svg width="237" height="80" viewBox="0 0 237 80" fill="none" xmlns="http://www.w3.org/2000/svg">
<path d="M114.5 36.9C113.1 36.9 111.2 36.3 109.3 36.3C103.9 36.3 100.9 40.3 100.9 44.7C100.9 50.2 104.6 52.4 109.1 52.4C111.5 52.4 112.9 51.6 114.4 51.6L114.8 48.3H114.2C113.8 50.2 112.3 51.6 109.8 51.6C106.3 51.6 103.3 49 103.3 44.1C103.3 40.2 105.5 37.2 109 37.2C111.9 37.2 113.6 38.5 114 40.5H114.6V36.9H114.5ZM121 51.3C120.3 51.2 120.1 51 120.1 50V44.1C120.6 44 121.3 43.1 122 43.1C122.6 43.1 122.8 43.4 122.8 43.8C122.8 44 122.7 44.2 122.7 44.2C122.9 44.3 123.1 44.3 123.3 44.3C124 44.3 124.5 43.8 124.5 43.1C124.5 42.2 123.9 41.7 122.9 41.7C121.5 41.7 120.4 43.4 120 43.5V41.7C120 41.7 118.4 42.5 116.3 42.7L116.4 43.2C117.7 43.2 118.1 43.6 118.1 44.5V49.8C118.1 50.6 117.6 51.2 116.9 51.3L116.3 51.4V52C116.3 52 117.4 51.9 119 51.9C120.7 51.9 121.8 52 121.8 52V51.4L121 51.3ZM130.7 51.5C129 51.5 127.3 49.9 127.3 46.9C127.3 44.5 128.2 42.7 130.2 42.7C131.9 42.7 133.6 44.3 133.6 47.3C133.6 49.7 132.8 51.5 130.7 51.5ZM130.8 41.7C127.3 41.7 125.2 44.4 125.2 47.2C125.2 50.4 127.4 52.3 130.1 52.3C133.6 52.3 135.6 49.6 135.6 46.8C135.7 43.6 133.5 41.7 130.8 41.7ZM132 35.9L129.7 40.5L129.9 40.7C130.9 40.2 133.2 38.2 133.2 36.8C133.2 36.2 132.8 35.9 132.3 35.9C132.1 35.8 132 35.9 132 35.9ZM147.9 51.3C147.2 51.2 147 51 147 50V44.6C147 43 146.1 41.7 144.1 41.7C142.4 41.7 141.1 43.2 140.5 43.3V41.7C140.5 41.7 138.9 42.5 136.8 42.7L136.9 43.2C138.2 43.2 138.6 43.6 138.6 44.5V49.8C138.6 50.6 138.1 51.2 137.4 51.3L136.8 51.4V52C136.8 52 138.5 51.9 139.5 51.9C140.5 51.9 142 52 142 52V51.4L141.3 51.3C140.6 51.2 140.4 51 140.4 50V44C141.2 43.8 142.1 43.1 143.2 43.1C144.3 43.1 144.9 43.7 144.9 44.9V49.9C144.9 50.7 144.4 51.2 143.7 51.4L143.2 51.5V52C143.2 52 144.8 51.9 145.8 51.9C146.8 51.9 148.2 52 148.2 52V51.4L147.9 51.3ZM154.9 51.4L154.2 51.3C153.5 51.2 153.3 51 153.3 50V41.8C153.3 41.8 151.7 42.6 149.6 42.8L149.7 43.3C151 43.3 151.3 43.7 151.3 44.6V49.9C151.3 50.7 150.8 51.3 150.1 51.4L149.5 51.5V52C149.5 52 151.2 51.9 152.2 51.9C153.2 51.9 154.7 52 154.7 52V51.4H154.9ZM151.2 37.6C151.2 38.3 151.8 38.9 152.5 38.9C153.2 38.9 153.8 38.3 153.8 37.6C153.8 36.9 153.2 36.3 152.5 36.3C151.7 36.3 151.2 36.9 151.2 37.6ZM160.9 42.7C162.5 42.7 162.9 43.4 162.9 43.9C162.9 44.2 162.8 44.4 162.8 44.4C163 44.5 163.2 44.5 163.4 44.5C164.1 44.5 164.8 44.1 164.8 43.4C164.8 42.2 163.2 41.6 161.7 41.6C158.2 41.6 156.1 44.3 156.1 47.1C156.1 51 159.2 52.2 160.8 52.2C163 52.2 164.2 51.1 164.5 50.7L164.3 50.3C163.7 50.6 162.8 50.8 161.8 50.8C159.2 50.8 158 48.8 158 46.7C158.1 44 159.4 42.7 160.9 42.7ZM168.1 49.9C168.1 48.4 169.8 47.7 171.8 47.7C171.8 47.7 171.8 48.4 171.8 49.2C171.8 50 171.9 50.6 171.9 50.6C171 50.8 170.6 51.3 169.5 51.3C168.7 51.3 168.1 50.8 168.1 49.9ZM171.8 46.9C169.2 46.9 166.2 47.6 166.2 50.1C166.2 51.6 167.1 52.3 168.7 52.3C170.5 52.3 171.1 51.2 172 51C172.2 51.6 172.7 52.3 173.8 52.3C175.1 52.3 175.7 51.2 175.7 51.2L175.5 50.8C175.5 50.8 175.1 51 174.6 51C173.7 51 173.6 50.3 173.6 49.2C173.6 47.7 173.7 46.4 173.7 45C173.7 43 172.8 41.6 170.6 41.6C168.6 41.6 166.7 42.6 166.7 43.8C166.7 44.4 167.2 44.8 167.9 44.8C168.3 44.8 168.7 44.7 169 44.5C168.8 44.3 168.7 44 168.7 43.7C168.7 43.2 169.1 42.6 170.2 42.6C171.6 42.6 172 43.5 172 44.6C171.8 45.4 171.8 46.9 171.8 46.9ZM182.9 42.2C182.1 42.2 181.3 41.8 180.2 41.8C178 41.8 176.7 43.1 176.7 44.7C176.7 48.1 181.7 47.6 181.7 50C181.7 50.9 180.9 51.5 179.7 51.5C178.4 51.5 177.4 50.6 177.1 49H176.5C176.6 51.8 176.6 51.9 176.6 51.9C177.6 51.9 178.1 52.4 179.5 52.4C181.6 52.4 183.2 51.4 183.2 49.4C183.2 46.1 178.1 46.3 178.1 44.1C178.1 43.4 178.7 42.6 179.8 42.6C181.4 42.6 182 43.9 182 45H182.6L182.9 42.2ZM195.1 51.1C192.8 51.1 191.9 48.9 191.9 46.8C191.9 44 193.6 42.5 195.5 42.5C196.9 42.5 197.4 43.3 197.4 44.2V50.3C196.8 50.5 196 51.1 195.1 51.1ZM197.4 41.9C197.4 41.9 196.9 41.8 196 41.8C191.8 41.8 189.9 44.6 189.9 47.5C189.9 50.4 191.4 52.4 194 52.4C195.7 52.4 196.4 51.3 197.3 51L197.5 52.4C197.5 52.4 199.2 51.5 201 51.4L200.9 50.9C199.6 50.9 199.2 50.5 199.2 49.6V35.6C199.2 35.6 197.6 36.4 195.5 36.6L195.6 37.1C196.9 37.1 197.2 37.5 197.2 38.4V41.9H197.4ZM204.1 45C204.4 43.5 205.6 42.5 206.9 42.5C208.1 42.5 208.9 43.1 208.9 44.4C208.9 44.6 208.9 44.7 208.9 44.7L204.1 45ZM210.8 45.4C210.8 43.1 209.7 41.8 207.3 41.8C204 41.8 202 44.5 202 47.3C202 50.1 203.6 52.4 206.7 52.4C208.4 52.4 209.7 51.7 210.6 50.7L210.4 50.3C209.7 50.7 208.9 51 207.6 51C205.3 51 203.9 49.5 203.9 46.7C203.9 46.1 203.9 45.7 203.9 45.7H210.3L210.8 45.4ZM105.6 73.4L104.9 73.3C104.2 73.2 104 73 104 72V57.5C104 57.5 102.4 58.3 100.3 58.5L100.4 59C101.7 59 102.1 59.4 102.1 60.3V71.8C102.1 72.6 101.6 73.2 100.9 73.3L100.3 73.4V74C100.3 74 102 73.9 103 73.9C104 73.9 105.5 74 105.5 74V73.4H105.6ZM108.5 71.9C108.5 70.4 110.2 69.7 112.2 69.7C112.2 69.7 112.2 70.4 112.2 71.2C112.2 72 112.3 72.6 112.3 72.6C111.4 72.8 111 73.3 109.9 73.3C109.2 73.3 108.5 72.8 108.5 71.9ZM112.2 68.9C109.6 68.9 106.6 69.6 106.6 72.1C106.6 73.6 107.5 74.3 109.1 74.3C110.9 74.3 111.5 73.2 112.4 73C112.6 73.6 113.1 74.3 114.2 74.3C115.5 74.3 116.1 73.2 116.1 73.2L115.9 72.8C115.9 72.8 115.5 73 115 73C114.1 73 114 72.3 114 71.2C114 69.7 114.1 68.4 114.1 67C114.1 65 113.2 63.6 111 63.6C109 63.6 107.1 64.6 107.1 65.8C107.1 66.4 107.6 66.8 108.3 66.8C108.7 66.8 109.1 66.7 109.4 66.5C109.2 66.3 109.1 66 109.1 65.7C109.1 65.2 109.5 64.6 110.6 64.6C112 64.6 112.4 65.5 112.4 66.6C112.3 67.4 112.2 68.9 112.2 68.9ZM121.3 73.3C120.6 73.2 120.4 73 120.4 72V66.1C120.9 66 121.6 65.1 122.3 65.1C122.9 65.1 123.1 65.4 123.1 65.8C123.1 66 123 66.2 123 66.2C123.2 66.3 123.4 66.3 123.6 66.3C124.3 66.3 124.8 65.8 124.8 65.1C124.8 64.2 124.2 63.7 123.2 63.7C121.8 63.7 120.7 65.4 120.3 65.5V63.7C120.3 63.7 118.7 64.5 116.6 64.7L116.7 65.2C118 65.2 118.4 65.6 118.4 66.5V71.8C118.4 72.6 117.9 73.2 117.2 73.3L116.6 73.4V74C116.6 74 117.7 73.9 119.3 73.9C121 73.9 122.1 74 122.1 74V73.4L121.3 73.3ZM130.1 64.5C131.7 64.5 132.6 66 132.6 67.5C132.6 69.4 131.7 70.3 130.4 70.3C129.1 70.3 128 69.3 128 67.2C128 65.7 128.6 64.5 130.1 64.5ZM130.7 78.8C128.9 78.8 127.6 78.4 127.6 77C127.6 76.5 127.8 76.1 128.3 75.8C128.1 75.5 127.7 75.3 127.3 75.3C126.6 75.3 125.7 75.8 125.7 77C125.7 78.8 127.8 79.7 129.8 79.7C133.2 79.7 135.9 78.3 135.9 76C135.9 73.8 134.1 73.2 131 73.2C129.2 73.2 128.3 73 128.3 72.4C128.3 71.7 129.4 71.4 130.5 71.2C133.2 71 134.4 69 134.4 67.4C134.4 66.6 134.1 65.8 133.6 65.2C134.1 65.4 134.5 65.8 135.2 65.8C136 65.8 136.4 65.3 136.4 64.9C136.4 64.7 136.3 64.4 136.1 64.2C135.6 64.5 134.9 64.6 134.1 64.6C133.7 64.6 133.3 64.5 132.9 64.5C132.1 64 131.5 63.9 130.5 63.9C127.7 63.9 126.1 65.8 126.1 67.7C126.1 69.5 127.2 70.7 128.8 71.1C127.9 71.3 126.6 71.8 126.6 73.1C126.6 74.7 128.3 75 130.7 75C133 75 134.4 75.3 134.4 76.7C134.4 78.2 132.3 78.8 130.7 78.8ZM139.1 71.9C139.1 70.4 140.8 69.7 142.8 69.7C142.8 69.7 142.8 70.4 142.8 71.2C142.8 72 142.9 72.6 142.9 72.6C142 72.8 141.6 73.3 140.5 73.3C139.8 73.3 139.1 72.8 139.1 71.9ZM142.8 68.9C140.2 68.9 137.2 69.6 137.2 72.1C137.2 73.6 138.1 74.3 139.7 74.3C141.5 74.3 142.1 73.2 143 73C143.2 73.6 143.7 74.3 144.8 74.3C146.1 74.3 146.7 73.2 146.7 73.2L146.5 72.8C146.5 72.8 146.1 73 145.6 73C144.7 73 144.6 72.3 144.6 71.2C144.6 69.7 144.7 68.4 144.7 67C144.7 65 143.8 63.6 141.6 63.6C139.6 63.6 137.7 64.6 137.7 65.8C137.7 66.4 138.2 66.8 138.9 66.8C139.3 66.8 139.7 66.7 140 66.5C139.8 66.3 139.7 66 139.7 65.7C139.7 65.2 140.1 64.6 141.2 64.6C142.6 64.6 143 65.5 143 66.6C142.9 67.4 142.8 68.9 142.8 68.9ZM157.9 73.1C155.6 73.1 154.7 70.9 154.7 68.8C154.7 66 156.4 64.5 158.3 64.5C159.7 64.5 160.2 65.3 160.2 66.2V72.3C159.6 72.5 158.8 73.1 157.9 73.1ZM160.2 63.9C160.2 63.9 159.7 63.8 158.8 63.8C154.6 63.8 152.7 66.6 152.7 69.5C152.7 72.4 154.2 74.4 156.8 74.4C158.5 74.4 159.2 73.3 160.1 73L160.3 74.4C160.3 74.4 162 73.5 163.8 73.4L163.7 72.9C162.4 72.9 162 72.5 162 71.6V57.6C162 57.6 160.4 58.4 158.3 58.6L158.4 59.1C159.7 59.1 160 59.5 160 60.4V63.9H160.2ZM170.2 73.4L169.5 73.3C168.8 73.2 168.6 73 168.6 72V63.8C168.6 63.8 167 64.6 164.9 64.8L165 65.3C166.3 65.3 166.6 65.7 166.6 66.6V71.9C166.6 72.7 166.1 73.3 165.4 73.4L164.8 73.5V74C164.8 74 166.5 73.9 167.5 73.9C168.5 73.9 170 74 170 74V73.4H170.2ZM166.4 59.6C166.4 60.3 167 60.9 167.7 60.9C168.4 60.9 169 60.3 169 59.6C169 58.9 168.4 58.3 167.7 58.3C167 58.3 166.4 58.9 166.4 59.6ZM178 64.2C177.2 64.2 176.4 63.8 175.3 63.8C173.1 63.8 171.8 65.1 171.8 66.7C171.8 70.1 176.7 69.6 176.7 72C176.7 72.9 175.9 73.5 174.7 73.5C173.4 73.5 172.4 72.6 172.1 71H171.5C171.6 73.8 171.6 73.9 171.6 73.9C172.6 73.9 173.1 74.4 174.5 74.4C176.6 74.4 178.2 73.4 178.2 71.4C178.2 68.1 173.1 68.3 173.1 66.1C173.1 65.4 173.7 64.6 174.8 64.6C176.4 64.6 177 65.9 177 67H177.6L178 64.2ZM182.5 61.8C182.5 61.8 182.1 62.7 181.3 63.5C180.6 64.2 179.5 64.6 179.5 64.6L179.6 65.1H181.1V71.5C181.1 73.3 182.2 74.3 183.8 74.3C185.2 74.3 186.2 73.8 186.8 73.2L186.7 72.7C186.7 72.7 185.9 73.1 184.6 73.1C183.4 73.1 182.9 72.2 182.9 71.3V65.1H186.3V64.1H183V61.9L182.5 61.8ZM189.7 71.9C189.7 70.4 191.4 69.7 193.4 69.7C193.4 69.7 193.4 70.4 193.4 71.2C193.4 72 193.5 72.6 193.5 72.6C192.6 72.8 192.2 73.3 191.1 73.3C190.4 73.3 189.7 72.8 189.7 71.9ZM193.4 68.9C190.8 68.9 187.8 69.6 187.8 72.1C187.8 73.6 188.7 74.3 190.3 74.3C192.1 74.3 192.7 73.2 193.6 73C193.8 73.6 194.3 74.3 195.4 74.3C196.7 74.3 197.3 73.2 197.3 73.2L197.1 72.8C197.1 72.8 196.7 73 196.2 73C195.3 73 195.2 72.3 195.2 71.2C195.2 69.7 195.3 68.4 195.3 67C195.3 65 194.4 63.6 192.2 63.6C190.2 63.6 188.3 64.6 188.3 65.8C188.3 66.4 188.8 66.8 189.5 66.8C189.9 66.8 190.3 66.7 190.6 66.5C190.4 66.3 190.3 66 190.3 65.7C190.3 65.2 190.7 64.6 191.8 64.6C193.2 64.6 193.6 65.5 193.6 66.6C193.5 67.4 193.4 68.9 193.4 68.9ZM208.9 73.3C208.2 73.2 208 73 208 72V66.6C208 65 207.1 63.7 205.1 63.7C203.4 63.7 202.1 65.2 201.5 65.3V63.7C201.5 63.7 199.9 64.5 197.8 64.7L197.9 65.2C199.2 65.2 199.5 65.6 199.5 66.5V71.8C199.5 72.6 199 73.2 198.3 73.3L197.7 73.4V74C197.7 74 199.4 73.9 200.4 73.9C201.4 73.9 202.9 74 202.9 74V73.4L202.2 73.3C201.5 73.2 201.3 73 201.3 72V66C202.1 65.8 203 65.1 204.1 65.1C205.2 65.1 205.8 65.7 205.8 66.9V71.9C205.8 72.7 205.3 73.2 204.6 73.4L204.1 73.5V74C204.1 74 205.7 73.9 206.7 73.9C207.7 73.9 209.1 74 209.1 74V73.4L208.9 73.3ZM215.3 64.7C216.9 64.7 217.3 65.4 217.3 65.9C217.3 66.2 217.2 66.4 217.2 66.4C217.4 66.5 217.6 66.5 217.8 66.5C218.5 66.5 219.2 66.1 219.2 65.4C219.2 64.2 217.6 63.6 216.1 63.6C212.6 63.6 210.5 66.3 210.5 69.1C210.5 73 213.6 74.2 215.2 74.2C217.4 74.2 218.6 73.1 218.9 72.7L218.7 72.3C218.1 72.6 217.2 72.8 216.2 72.8C213.6 72.8 212.4 70.8 212.4 68.7C212.6 66 213.8 64.7 215.3 64.7ZM225.9 73.4L225.2 73.3C224.5 73.2 224.3 73 224.3 72V63.8C224.3 63.8 222.7 64.6 220.6 64.8L220.7 65.3C222 65.3 222.3 65.7 222.3 66.6V71.9C222.3 72.7 221.8 73.3 221.1 73.4L220.5 73.5V74C220.5 74 222.2 73.9 223.2 73.9C224.2 73.9 225.7 74 225.7 74V73.4H225.9ZM222.1 59.6C222.1 60.3 222.7 60.9 223.4 60.9C224.1 60.9 224.7 60.3 224.7 59.6C224.7 58.9 224.1 58.3 223.4 58.3C222.7 58.3 222.1 58.9 222.1 59.6ZM229.3 71.9C229.3 70.4 231 69.7 233 69.7C233 69.7 233 70.4 233 71.2C233 72 233.1 72.6 233.1 72.6C232.2 72.8 231.8 73.3 230.7 73.3C229.9 73.3 229.3 72.8 229.3 71.9ZM233 68.9C230.4 68.9 227.4 69.6 227.4 72.1C227.4 73.6 228.3 74.3 229.9 74.3C231.7 74.3 232.3 73.2 233.2 73C233.4 73.6 233.9 74.3 235 74.3C236.3 74.3 236.9 73.2 236.9 73.2L236.7 72.8C236.7 72.8 236.3 73 235.8 73C234.9 73 234.8 72.3 234.8 71.2C234.8 69.7 234.9 68.4 234.9 67C234.9 65 234 63.6 231.8 63.6C229.8 63.6 227.9 64.6 227.9 65.8C227.9 66.4 228.4 66.8 229.1 66.8C229.5 66.8 229.9 66.7 230.2 66.5C230 66.3 229.9 66 229.9 65.7C229.9 65.2 230.3 64.6 231.4 64.6C232.8 64.6 233.2 65.5 233.2 66.6C233.1 67.4 233 68.9 233 68.9Z" fill="white"/>
<path d="M0 0V70.6V73.7V74H75V0H0ZM71.1 4V46.4L70.8 46L69.5 42.2C68 37.8 66.2 32.5 64.3 26.4H62.3C60.3 32.2 58.3 37.7 56.2 43L48.4 62.9L43.4 40.4C43.2 39.3 42.7 36.9 42 33C41.7 31.6 41.6 30.7 41.6 30.1C41.6 29.7 41.8 29.4 42 29.2C42.4 29 44 28.8 46.8 28.7V26.8C42.9 27 40.2 27 38.5 27C36.7 27 34 26.9 30.4 26.8V28.7C32.6 29 33.9 29.3 34.3 29.6C34.7 29.9 35.1 31.1 35.6 32.9L41.7 59.6L43.9 69.7V69.9H12.2C21.9 65.4 30 56.9 30 46.1C30 32.1 17.4 27 6 25.9L4.1 25.7C4 25.7 4 25.7 3.9 25.7V20.4L4.4 18.6C4.9 16.8 5.4 16.4 7.5 16.1L24.6 13.6C25.9 12.2 27.2 9.9 27.9 7.9C27.9 7.5 27.6 7 27.1 7.1L5.3 10.1C4.7 10.2 4.2 10.4 3.9 10.7V4H71.1ZM3.9 32.2C13.4 33.3 23.3 37.4 23.3 48.5C23.3 59.1 14.9 67 3.9 69.8V32.2ZM48.9 70C48.9 69.9 48.9 69.9 49 69.8C49.3 68.9 49.5 68.2 49.7 67.7C50.1 66.6 50.6 65.3 51.1 63.8L55.1 53.2L61.4 37.2L68.6 57.2C69.2 58.9 69.9 60.9 70.8 63.4L71.1 63.5V70H48.9Z" fill="white"/>
</svg>
