<svg width="149" height="60" viewBox="0 0 149 60" fill="none" xmlns="http://www.w3.org/2000/svg">
<path d="M52.9719 4.454H56.5539C57.8859 4.454 58.9059 4.76 59.6139 5.372C60.3339 5.972 60.6939 6.836 60.6939 7.964C60.6939 9.104 60.3339 9.986 59.6139 10.61C58.8939 11.222 57.8739 11.528 56.5539 11.528H54.2499V17H52.9719V4.454ZM56.4279 10.34C57.4119 10.34 58.1499 10.142 58.6419 9.746C59.1459 9.35 59.3979 8.762 59.3979 7.982C59.3979 7.214 59.1459 6.632 58.6419 6.236C58.1499 5.84 57.4119 5.642 56.4279 5.642H54.2499V10.34H56.4279ZM66.8342 7.982C67.3982 7.982 67.9082 8.108 68.3642 8.36L67.7522 9.368C67.3322 9.188 66.9422 9.098 66.5822 9.098C65.8742 9.098 65.2982 9.356 64.8542 9.872C64.4222 10.388 64.2062 11.114 64.2062 12.05V17H62.9642V8.126H64.2062V9.458C64.5062 8.918 64.8842 8.54 65.3402 8.324C65.8082 8.096 66.3062 7.982 66.8342 7.982ZM76.4718 12.122C76.4718 12.422 76.4538 12.68 76.4178 12.896H69.9198C69.9318 13.868 70.1898 14.63 70.6938 15.182C71.2098 15.734 71.9058 16.01 72.7818 16.01C73.2978 16.01 73.7538 15.932 74.1498 15.776C74.5578 15.608 74.9538 15.314 75.3378 14.894L76.2018 15.65C75.6858 16.19 75.1578 16.574 74.6178 16.802C74.0778 17.03 73.4598 17.144 72.7638 17.144C71.8878 17.144 71.1438 16.946 70.5318 16.55C69.9198 16.154 69.4578 15.614 69.1458 14.93C68.8338 14.234 68.6778 13.46 68.6778 12.608C68.6778 11.756 68.8278 10.982 69.1278 10.286C69.4398 9.578 69.8898 9.02 70.4778 8.612C71.0778 8.192 71.7918 7.982 72.6198 7.982C73.4838 7.982 74.2038 8.18 74.7798 8.576C75.3558 8.972 75.7818 9.488 76.0578 10.124C76.3338 10.748 76.4718 11.414 76.4718 12.122ZM72.6198 9.026C71.8398 9.026 71.2098 9.296 70.7298 9.836C70.2498 10.364 69.9798 11.036 69.9198 11.852H75.2838C75.2838 11.84 75.2778 11.816 75.2658 11.78C75.2658 11.732 75.2658 11.66 75.2658 11.564C75.2178 10.82 74.9598 10.214 74.4918 9.746C74.0358 9.266 73.4118 9.026 72.6198 9.026ZM88.1398 7.982C89.1598 7.982 89.9158 8.294 90.4078 8.918C90.8998 9.53 91.1458 10.376 91.1458 11.456V17H89.9038V11.798C89.9038 11.09 89.7898 10.46 89.5618 9.908C89.3338 9.356 88.7998 9.08 87.9598 9.08C87.1198 9.08 86.5258 9.41 86.1778 10.07C85.8418 10.73 85.6738 11.618 85.6738 12.734V17H84.4318V11.87C84.4318 11.042 84.2758 10.37 83.9638 9.854C83.6638 9.338 83.1538 9.08 82.4338 9.08C80.9578 9.08 80.2198 10.298 80.2198 12.734V17H78.9778L78.9598 8.126H80.1658V9.206C80.6818 8.39 81.4978 7.982 82.6138 7.982C83.9098 7.982 84.7798 8.552 85.2238 9.692C85.7998 8.552 86.7718 7.982 88.1398 7.982ZM94.2005 8.126H95.4425V17H94.2005V8.126ZM94.0925 4.454H95.5325V6.29H94.0925V4.454ZM27.7539 24.454H31.3899C33.4659 24.454 35.0739 25.012 36.2139 26.128C37.3539 27.232 37.9239 28.798 37.9239 30.826C37.9239 32.83 37.3599 34.36 36.2319 35.416C35.1159 36.472 33.4959 37 31.3719 37H27.7539V24.454ZM31.1559 34.93C32.7399 34.93 33.8859 34.6 34.5939 33.94C35.3019 33.28 35.6559 32.212 35.6559 30.736C35.6559 29.284 35.3079 28.222 34.6119 27.55C33.9279 26.866 32.8419 26.524 31.3539 26.524H30.0039V34.93H31.1559ZM47.488 32.446C47.488 32.71 47.47 32.986 47.434 33.274H41.35C41.398 33.874 41.608 34.348 41.98 34.696C42.352 35.044 42.88 35.218 43.564 35.218C44.428 35.218 45.136 34.9 45.688 34.264L47.182 35.578C46.69 36.118 46.144 36.52 45.544 36.784C44.956 37.048 44.29 37.18 43.546 37.18C42.574 37.18 41.758 36.97 41.098 36.55C40.45 36.13 39.97 35.578 39.658 34.894C39.346 34.198 39.19 33.436 39.19 32.608C39.19 31.792 39.34 31.03 39.64 30.322C39.952 29.614 40.42 29.044 41.044 28.612C41.68 28.168 42.466 27.946 43.402 27.946C44.29 27.946 45.04 28.144 45.652 28.54C46.264 28.936 46.72 29.476 47.02 30.16C47.332 30.844 47.488 31.606 47.488 32.446ZM45.418 31.564C45.406 31.012 45.208 30.574 44.824 30.25C44.44 29.914 43.96 29.746 43.384 29.746C42.772 29.746 42.292 29.926 41.944 30.286C41.608 30.634 41.404 31.06 41.332 31.564H45.418ZM52.052 37.18C51.152 37.18 50.36 36.946 49.676 36.478C49.004 35.998 48.554 35.404 48.326 34.696L50.054 33.922C50.402 34.894 51.032 35.38 51.944 35.38C52.412 35.38 52.766 35.272 53.006 35.056C53.258 34.84 53.384 34.6 53.384 34.336C53.384 34.072 53.258 33.874 53.006 33.742C52.754 33.61 52.34 33.46 51.764 33.292C51.164 33.136 50.666 32.974 50.27 32.806C49.874 32.626 49.532 32.356 49.244 31.996C48.956 31.624 48.812 31.138 48.812 30.538C48.812 29.722 49.124 29.086 49.748 28.63C50.384 28.174 51.158 27.946 52.07 27.946C52.826 27.946 53.492 28.114 54.068 28.45C54.644 28.786 55.1 29.26 55.436 29.872L53.762 30.79C53.582 30.454 53.354 30.184 53.078 29.98C52.802 29.764 52.442 29.656 51.998 29.656C51.662 29.656 51.386 29.728 51.17 29.872C50.966 30.016 50.864 30.196 50.864 30.412C50.864 30.652 50.99 30.838 51.242 30.97C51.506 31.102 51.908 31.24 52.448 31.384C53.072 31.564 53.588 31.744 53.996 31.924C54.404 32.104 54.758 32.38 55.058 32.752C55.358 33.124 55.508 33.61 55.508 34.21C55.508 34.87 55.34 35.422 55.004 35.866C54.68 36.31 54.254 36.64 53.726 36.856C53.198 37.072 52.64 37.18 52.052 37.18ZM60.698 27.946C61.874 27.946 62.798 28.258 63.47 28.882C64.154 29.494 64.496 30.334 64.496 31.402V37H62.516L62.336 35.848C62.072 36.268 61.7 36.598 61.22 36.838C60.752 37.066 60.224 37.18 59.636 37.18C59.024 37.18 58.472 37.06 57.98 36.82C57.5 36.568 57.122 36.22 56.846 35.776C56.57 35.332 56.432 34.834 56.432 34.282C56.432 33.754 56.546 33.298 56.774 32.914C57.002 32.53 57.332 32.242 57.764 32.05C58.34 31.786 59.126 31.654 60.122 31.654H62.336V31.402C62.336 30.922 62.186 30.544 61.886 30.268C61.586 29.98 61.178 29.836 60.662 29.836C60.206 29.836 59.774 29.95 59.366 30.178C58.958 30.406 58.592 30.736 58.268 31.168L56.702 29.854C57.758 28.582 59.09 27.946 60.698 27.946ZM59.978 35.344C60.626 35.344 61.178 35.146 61.634 34.75C62.102 34.342 62.336 33.85 62.336 33.274H60.41C59.714 33.274 59.228 33.376 58.952 33.58C58.712 33.748 58.592 33.994 58.592 34.318C58.592 34.63 58.712 34.882 58.952 35.074C59.204 35.254 59.546 35.344 59.978 35.344ZM68.7678 37.18C68.1318 37.18 67.6218 36.988 67.2378 36.604C66.8658 36.22 66.6798 35.644 66.6798 34.876V24.454H68.8398V34.732C68.8398 35.104 69.0498 35.29 69.4698 35.29C69.6738 35.29 69.9018 35.254 70.1538 35.182V36.91C69.6738 37.09 69.2118 37.18 68.7678 37.18ZM75.1648 27.946C76.3408 27.946 77.2648 28.258 77.9368 28.882C78.6208 29.494 78.9628 30.334 78.9628 31.402V37H76.9828L76.8028 35.848C76.5388 36.268 76.1668 36.598 75.6868 36.838C75.2188 37.066 74.6908 37.18 74.1028 37.18C73.4908 37.18 72.9388 37.06 72.4468 36.82C71.9668 36.568 71.5888 36.22 71.3128 35.776C71.0368 35.332 70.8988 34.834 70.8988 34.282C70.8988 33.754 71.0128 33.298 71.2408 32.914C71.4688 32.53 71.7988 32.242 72.2308 32.05C72.8068 31.786 73.5928 31.654 74.5888 31.654H76.8028V31.402C76.8028 30.922 76.6528 30.544 76.3528 30.268C76.0528 29.98 75.6448 29.836 75.1288 29.836C74.6728 29.836 74.2408 29.95 73.8328 30.178C73.4248 30.406 73.0588 30.736 72.7348 31.168L71.1688 29.854C72.2248 28.582 73.5568 27.946 75.1648 27.946ZM74.4448 35.344C75.0928 35.344 75.6448 35.146 76.1008 34.75C76.5688 34.342 76.8028 33.85 76.8028 33.274H74.8768C74.1808 33.274 73.6948 33.376 73.4188 33.58C73.1788 33.748 73.0588 33.994 73.0588 34.318C73.0588 34.63 73.1788 34.882 73.4188 35.074C73.6708 35.254 74.0128 35.344 74.4448 35.344ZM91.1546 27.946C92.1626 27.946 92.9306 28.276 93.4586 28.936C93.9866 29.584 94.2506 30.388 94.2506 31.348V37H92.0906V31.996C92.0906 30.556 91.5866 29.836 90.5786 29.836C90.0146 29.836 89.6066 30.016 89.3546 30.376C89.1026 30.724 88.9526 31.138 88.9046 31.618C88.8566 32.086 88.8326 32.752 88.8326 33.616V37H86.6726V31.996C86.6726 30.556 86.1746 29.836 85.1786 29.836C84.6146 29.836 84.2066 30.016 83.9546 30.376C83.7026 30.724 83.5466 31.144 83.4866 31.636C83.4386 32.116 83.4146 32.776 83.4146 33.616V37H81.2546L81.2366 28.126H83.3246V29.242C83.8286 28.378 84.6206 27.946 85.7006 27.946C86.2526 27.946 86.7566 28.078 87.2126 28.342C87.6806 28.606 88.0406 29.056 88.2926 29.692C88.6166 29.068 89.0186 28.624 89.4986 28.36C89.9786 28.084 90.5306 27.946 91.1546 27.946ZM101.281 27.946C102.013 27.946 102.661 28.132 103.225 28.504C103.789 28.864 104.227 29.392 104.539 30.088C104.863 30.784 105.025 31.606 105.025 32.554C105.025 33.922 104.695 35.038 104.035 35.902C103.375 36.754 102.457 37.18 101.281 37.18C100.777 37.18 100.297 37.096 99.8411 36.928C99.3851 36.748 99.0131 36.478 98.7251 36.118V37H96.5651V24.454H98.7251V29.026C99.0011 28.69 99.3671 28.426 99.8231 28.234C100.291 28.042 100.777 27.946 101.281 27.946ZM100.759 35.182C101.467 35.182 101.995 34.96 102.343 34.516C102.691 34.06 102.865 33.412 102.865 32.572C102.865 31.72 102.685 31.066 102.325 30.61C101.977 30.142 101.449 29.908 100.741 29.908C100.009 29.908 99.4571 30.154 99.0851 30.646C98.7131 31.138 98.5271 31.78 98.5271 32.572C98.5271 33.352 98.7131 33.982 99.0851 34.462C99.4571 34.942 100.015 35.182 100.759 35.182ZM111.419 27.946C112.007 27.946 112.571 28.114 113.111 28.45L112.067 30.358C111.755 30.154 111.395 30.052 110.987 30.052C109.679 30.052 109.025 30.88 109.025 32.536V37H106.865V28.126H109.043V29.638C109.223 29.11 109.529 28.696 109.961 28.396C110.405 28.096 110.891 27.946 111.419 27.946ZM121.316 32.446C121.316 32.71 121.298 32.986 121.262 33.274H115.178C115.226 33.874 115.436 34.348 115.808 34.696C116.18 35.044 116.708 35.218 117.392 35.218C118.256 35.218 118.964 34.9 119.516 34.264L121.01 35.578C120.518 36.118 119.972 36.52 119.372 36.784C118.784 37.048 118.118 37.18 117.374 37.18C116.402 37.18 115.586 36.97 114.926 36.55C114.278 36.13 113.798 35.578 113.486 34.894C113.174 34.198 113.018 33.436 113.018 32.608C113.018 31.792 113.168 31.03 113.468 30.322C113.78 29.614 114.248 29.044 114.872 28.612C115.508 28.168 116.294 27.946 117.23 27.946C118.118 27.946 118.868 28.144 119.48 28.54C120.092 28.936 120.548 29.476 120.848 30.16C121.16 30.844 121.316 31.606 121.316 32.446ZM119.246 31.564C119.234 31.012 119.036 30.574 118.652 30.25C118.268 29.914 117.788 29.746 117.212 29.746C116.6 29.746 116.12 29.926 115.772 30.286C115.436 30.634 115.232 31.06 115.16 31.564H119.246ZM62.5903 54.966V57H53.8063V55.218C55.4503 54.21 56.8783 53.136 58.0903 51.996C59.3023 50.844 59.9083 49.626 59.9083 48.342C59.9083 47.754 59.7523 47.28 59.4403 46.92C59.1403 46.56 58.6903 46.38 58.0903 46.38C57.3583 46.38 56.8243 46.632 56.4883 47.136C56.1643 47.64 55.9843 48.27 55.9483 49.026L53.8243 48.864C53.8243 48.072 53.9923 47.328 54.3283 46.632C54.6643 45.936 55.1563 45.372 55.8043 44.94C56.4643 44.508 57.2383 44.292 58.1263 44.292C58.8943 44.292 59.5723 44.454 60.1603 44.778C60.7603 45.102 61.2283 45.558 61.5643 46.146C61.9003 46.734 62.0683 47.412 62.0683 48.18C62.0683 49.068 61.8463 49.95 61.4023 50.826C60.9583 51.69 60.3883 52.476 59.6923 53.184C58.9963 53.892 58.2643 54.486 57.4963 54.966H62.5903ZM68.8171 57.18C67.0891 57.18 65.9311 56.556 65.3431 55.308C64.7551 54.048 64.4611 52.524 64.4611 50.736C64.4611 48.924 64.7431 47.394 65.3071 46.146C65.8831 44.886 67.0111 44.256 68.6911 44.256C70.2751 44.256 71.3911 44.88 72.0391 46.128C72.6991 47.364 73.0291 48.906 73.0291 50.754C73.0291 52.59 72.7111 54.12 72.0751 55.344C71.4391 56.568 70.3531 57.18 68.8171 57.18ZM68.7631 55.11C69.3511 55.11 69.7831 54.9 70.0591 54.48C70.3471 54.06 70.5271 53.556 70.5991 52.968C70.6711 52.368 70.7071 51.618 70.7071 50.718C70.7071 49.794 70.6711 49.038 70.5991 48.45C70.5271 47.85 70.3411 47.346 70.0411 46.938C69.7531 46.53 69.3031 46.326 68.6911 46.326C68.0791 46.326 67.6231 46.53 67.3231 46.938C67.0351 47.346 66.8551 47.85 66.7831 48.45C66.7111 49.05 66.6751 49.812 66.6751 50.736C66.6751 51.636 66.7111 52.386 66.7831 52.986C66.8671 53.574 67.0591 54.078 67.3591 54.498C67.6591 54.906 68.1271 55.11 68.7631 55.11ZM81.182 44.454V57H79.022V48.216H76.088V46.416H77.762C78.194 46.416 78.512 46.32 78.716 46.128C78.92 45.936 79.022 45.63 79.022 45.21V44.454H81.182ZM89.8029 44.274C90.6429 44.274 91.4109 44.46 92.1069 44.832C92.8149 45.204 93.3729 45.72 93.7809 46.38C94.1889 47.04 94.3929 47.79 94.3929 48.63C94.3929 49.446 94.1589 50.226 93.6909 50.97L89.9469 57H87.4629L90.1089 52.932C89.8209 52.956 89.6109 52.968 89.4789 52.968C88.6389 52.968 87.8949 52.782 87.2469 52.41C86.6109 52.026 86.1189 51.51 85.7709 50.862C85.4229 50.202 85.2489 49.464 85.2489 48.648C85.2489 47.808 85.4529 47.058 85.8609 46.398C86.2689 45.726 86.8209 45.204 87.5169 44.832C88.2129 44.46 88.9749 44.274 89.8029 44.274ZM89.8029 50.952C90.4869 50.952 91.0509 50.748 91.4949 50.34C91.9509 49.92 92.1789 49.356 92.1789 48.648C92.1789 47.94 91.9509 47.382 91.4949 46.974C91.0509 46.554 90.4869 46.344 89.8029 46.344C89.1309 46.344 88.5669 46.554 88.1109 46.974C87.6669 47.394 87.4449 47.952 87.4449 48.648C87.4449 49.344 87.6669 49.902 88.1109 50.322C88.5669 50.742 89.1309 50.952 89.8029 50.952Z" fill="white"/>
<path d="M20.9096 0C20.2209 1.72789 19.1852 3.29293 17.8678 4.59643C16.5503 5.89994 14.9798 6.91363 13.2551 7.5736C13.267 3.97976 17.148 0.096479 20.9096 0ZM13.1357 52.7258C10.5324 49.4455 7.04549 47.5038 4.4303 48.7339C6.57977 53.0634 10.9504 54.6071 13.1357 52.7258ZM9.0636 46.3581C7.23655 42.7402 4.21535 40.1594 1.4091 40.8347C2.66296 45.4416 6.56783 47.7691 9.0636 46.3581ZM6.41259 39.4358C5.33785 35.6007 2.83014 32.4652 0 32.5858C0.346304 37.3132 3.68993 40.3161 6.41259 39.4358ZM5.21844 32.1999C4.90796 28.2442 3.09285 24.6745 0.23883 24.2283C-0.370187 28.9437 2.3883 32.5617 5.17067 32.1999H5.21844ZM5.39756 24.8675C5.8394 20.9239 4.75272 17.0406 2.05394 16.0396C0.525426 20.5741 2.50772 24.6263 5.3498 24.8675H5.39756ZM6.97384 17.6315C8.16799 13.8327 7.90528 9.75644 5.45727 8.22483C3.03314 12.494 4.19147 16.8838 6.92607 17.6798L6.97384 17.6315ZM9.92339 10.8539C11.8818 7.32034 12.5147 3.19587 10.4249 1.20599C7.1649 4.96867 7.39179 9.55142 9.92339 10.8539ZM11.631 11.8428C14.1865 13.1935 17.4704 11.9393 19.6915 9.43082C17.6257 7.47712 13.6253 8.34543 11.631 11.8669V11.8428ZM8.80089 18.3069C11.5713 19.127 14.5328 17.2818 16.1449 14.4598C13.7208 12.9282 10.0309 14.4718 8.80089 18.3069ZM7.3082 25.1087C10.1742 25.3619 12.7177 22.9861 13.7327 19.9591C11.0578 18.934 7.77392 21.1771 7.3082 25.1087ZM7.1649 32.0431C10.0189 31.7295 12.0729 28.8955 12.4789 25.7478C9.6368 25.3257 6.85442 28.0995 7.1649 32.0431ZM8.35905 38.9051C11.1056 38.0248 12.5744 34.8289 12.3595 31.6692C9.45767 31.7657 7.27238 35.0701 8.35905 38.9051ZM10.8668 45.4537C13.3864 44.0426 14.1746 40.6297 13.3625 37.4941C10.5324 38.1574 9.01584 41.8598 10.819 45.4537H10.8668ZM14.7 51.4836C16.8853 49.5902 16.9211 45.9722 15.5001 43.0417C12.8491 44.2838 12.0967 48.2395 14.6522 51.4836H14.7ZM20.6707 57.9839C13.3314 52.4412 8.37444 44.2688 6.81958 35.1477C5.26471 26.0266 7.2302 16.6506 12.3117 8.94842C7.03011 16.6729 4.88582 26.1501 6.32123 35.4246C7.75664 44.6991 12.6622 53.0635 20.0259 58.7919C20.3603 59.0572 20.7663 59.0813 20.9335 58.7919C21.1006 58.5024 20.9335 58.1889 20.6469 57.9356L20.6707 57.9839Z" fill="white"/>
<path d="M128.09 0C128.779 1.72789 129.815 3.29293 131.132 4.59643C132.45 5.89994 134.02 6.91363 135.745 7.5736C135.733 3.97976 131.852 0.096479 128.09 0ZM135.864 52.7258C138.468 49.4455 141.955 47.5038 144.57 48.7339C142.42 53.0634 138.05 54.6071 135.864 52.7258ZM139.936 46.3581C141.763 42.7402 144.785 40.1594 147.591 40.8347C146.337 45.4416 142.432 47.7691 139.936 46.3581ZM142.587 39.4358C143.662 35.6007 146.17 32.4652 149 32.5858C148.654 37.3132 145.31 40.3161 142.587 39.4358ZM143.782 32.1999C144.092 28.2442 145.907 24.6745 148.761 24.2283C149.37 28.9437 146.612 32.5617 143.829 32.1999H143.782ZM143.602 24.8675C143.161 20.9239 144.247 17.0406 146.946 16.0396C148.475 20.5741 146.492 24.6263 143.65 24.8675H143.602ZM142.026 17.6315C140.832 13.8327 141.095 9.75644 143.543 8.22483C145.967 12.494 144.809 16.8838 142.074 17.6798L142.026 17.6315ZM139.077 10.8539C137.118 7.32034 136.485 3.19587 138.575 1.20599C141.835 4.96867 141.608 9.55142 139.077 10.8539ZM137.369 11.8428C134.813 13.1935 131.53 11.9393 129.308 9.43082C131.374 7.47712 135.375 8.34543 137.369 11.8669V11.8428ZM140.199 18.3069C137.429 19.127 134.467 17.2818 132.855 14.4598C135.279 12.9282 138.969 14.4718 140.199 18.3069ZM141.692 25.1087C138.826 25.3619 136.282 22.9861 135.267 19.9591C137.942 18.934 141.226 21.1771 141.692 25.1087ZM141.835 32.0431C138.981 31.7295 136.927 28.8955 136.521 25.7478C139.363 25.3257 142.146 28.0995 141.835 32.0431ZM140.641 38.9051C137.894 38.0248 136.426 34.8289 136.641 31.6692C139.542 31.7657 141.728 35.0701 140.641 38.9051ZM138.133 45.4537C135.614 44.0426 134.825 40.6297 135.637 37.4941C138.468 38.1574 139.984 41.8598 138.181 45.4537H138.133ZM134.3 51.4836C132.115 49.5902 132.079 45.9722 133.5 43.0417C136.151 44.2838 136.903 48.2395 134.348 51.4836H134.3ZM128.329 57.9839C135.669 52.4412 140.626 44.2688 142.18 35.1477C143.735 26.0266 141.77 16.6506 136.688 8.94842C141.97 16.6729 144.114 26.1501 142.679 35.4246C141.243 44.6991 136.338 53.0635 128.974 58.7919C128.64 59.0572 128.234 59.0813 128.067 58.7919C127.899 58.5024 128.067 58.1889 128.353 57.9356L128.329 57.9839Z" fill="white"/>
</svg>
